<svg width="285" height="74" viewBox="0 0 285 74" fill="none" xmlns="http://www.w3.org/2000/svg">
<path d="M25 33.8V39H3.32V11H24.48V16.2H9.76V22.28H22.76V27.32H9.76V33.8H25ZM42.7959 17.16C45.4626 17.16 47.6093 17.96 49.2359 19.56C50.8893 21.16 51.7159 23.5333 51.7159 26.68V39H45.4759V27.64C45.4759 25.9333 45.1026 24.6667 44.3559 23.84C43.6093 22.9867 42.5293 22.56 41.1159 22.56C39.5426 22.56 38.2893 23.0533 37.3559 24.04C36.4226 25 35.9559 26.44 35.9559 28.36V39H29.7159V17.48H35.6759V20C36.5026 19.0933 37.5293 18.4 38.7559 17.92C39.9826 17.4133 41.3293 17.16 42.7959 17.16ZM79.8066 17.48V35.4C79.8066 39.3467 78.7799 42.28 76.7266 44.2C74.6732 46.12 71.6732 47.08 67.7266 47.08C65.6466 47.08 63.6732 46.8267 61.8066 46.32C59.9399 45.8133 58.3932 45.08 57.1666 44.12L59.6466 39.64C60.5532 40.3867 61.6999 40.9733 63.0866 41.4C64.4732 41.8533 65.8599 42.08 67.2466 42.08C69.4066 42.08 70.9932 41.5867 72.0066 40.6C73.0466 39.64 73.5666 38.1733 73.5666 36.2V35.28C71.9399 37.0667 69.6732 37.96 66.7666 37.96C64.7932 37.96 62.9799 37.5333 61.3266 36.68C59.6999 35.8 58.4066 34.5733 57.4466 33C56.4866 31.4267 56.0066 29.6133 56.0066 27.56C56.0066 25.5067 56.4866 23.6933 57.4466 22.12C58.4066 20.5467 59.6999 19.3333 61.3266 18.48C62.9799 17.6 64.7932 17.16 66.7666 17.16C69.8866 17.16 72.2599 18.1867 73.8866 20.24V17.48H79.8066ZM68.0066 32.84C69.6599 32.84 71.0066 32.36 72.0466 31.4C73.1132 30.4133 73.6466 29.1333 73.6466 27.56C73.6466 25.9867 73.1132 24.72 72.0466 23.76C71.0066 22.7733 69.6599 22.28 68.0066 22.28C66.3532 22.28 64.9932 22.7733 63.9266 23.76C62.8599 24.72 62.3266 25.9867 62.3266 27.56C62.3266 29.1333 62.8599 30.4133 63.9266 31.4C64.9932 32.36 66.3532 32.84 68.0066 32.84ZM85.6144 17.48H91.8544V39H85.6144V17.48ZM88.7344 14.48C87.5877 14.48 86.6544 14.1467 85.9344 13.48C85.2144 12.8133 84.8544 11.9867 84.8544 11C84.8544 10.0133 85.2144 9.18667 85.9344 8.52C86.6544 7.85333 87.5877 7.52 88.7344 7.52C89.881 7.52 90.8144 7.84 91.5344 8.48C92.2544 9.12 92.6144 9.92 92.6144 10.88C92.6144 11.92 92.2544 12.7867 91.5344 13.48C90.8144 14.1467 89.881 14.48 88.7344 14.48ZM110.726 17.16C113.392 17.16 115.539 17.96 117.166 19.56C118.819 21.16 119.646 23.5333 119.646 26.68V39H113.406V27.64C113.406 25.9333 113.032 24.6667 112.286 23.84C111.539 22.9867 110.459 22.56 109.046 22.56C107.472 22.56 106.219 23.0533 105.286 24.04C104.352 25 103.886 26.44 103.886 28.36V39H97.6456V17.48H103.606V20C104.432 19.0933 105.459 18.4 106.686 17.92C107.912 17.4133 109.259 17.16 110.726 17.16ZM146.616 28.32C146.616 28.4 146.576 28.96 146.496 30H130.216C130.51 31.3333 131.203 32.3867 132.296 33.16C133.39 33.9333 134.75 34.32 136.376 34.32C137.496 34.32 138.483 34.16 139.336 33.84C140.216 33.4933 141.03 32.96 141.776 32.24L145.096 35.84C143.07 38.16 140.11 39.32 136.216 39.32C133.79 39.32 131.643 38.8533 129.776 37.92C127.91 36.96 126.47 35.64 125.456 33.96C124.443 32.28 123.936 30.3733 123.936 28.24C123.936 26.1333 124.43 24.24 125.416 22.56C126.43 20.8533 127.803 19.5333 129.536 18.6C131.296 17.64 133.256 17.16 135.416 17.16C137.523 17.16 139.43 17.6133 141.136 18.52C142.843 19.4267 144.176 20.7333 145.136 22.44C146.123 24.12 146.616 26.08 146.616 28.32ZM135.456 21.88C134.043 21.88 132.856 22.28 131.896 23.08C130.936 23.88 130.35 24.9733 130.136 26.36H140.736C140.523 25 139.936 23.92 138.976 23.12C138.016 22.2933 136.843 21.88 135.456 21.88ZM171.851 28.32C171.851 28.4 171.811 28.96 171.731 30H155.451C155.744 31.3333 156.437 32.3867 157.531 33.16C158.624 33.9333 159.984 34.32 161.611 34.32C162.731 34.32 163.717 34.16 164.571 33.84C165.451 33.4933 166.264 32.96 167.011 32.24L170.331 35.84C168.304 38.16 165.344 39.32 161.451 39.32C159.024 39.32 156.877 38.8533 155.011 37.92C153.144 36.96 151.704 35.64 150.691 33.96C149.677 32.28 149.171 30.3733 149.171 28.24C149.171 26.1333 149.664 24.24 150.651 22.56C151.664 20.8533 153.037 19.5333 154.771 18.6C156.531 17.64 158.491 17.16 160.651 17.16C162.757 17.16 164.664 17.6133 166.371 18.52C168.077 19.4267 169.411 20.7333 170.371 22.44C171.357 24.12 171.851 26.08 171.851 28.32ZM160.691 21.88C159.277 21.88 158.091 22.28 157.131 23.08C156.171 23.88 155.584 24.9733 155.371 26.36H165.971C165.757 25 165.171 23.92 164.211 23.12C163.251 22.2933 162.077 21.88 160.691 21.88ZM181.965 20.32C182.712 19.28 183.712 18.4933 184.965 17.96C186.245 17.4267 187.712 17.16 189.365 17.16V22.92C188.672 22.8667 188.205 22.84 187.965 22.84C186.178 22.84 184.778 23.3467 183.765 24.36C182.752 25.3467 182.245 26.84 182.245 28.84V39H176.005V17.48H181.965V20.32ZM193.075 17.48H199.315V39H193.075V17.48ZM196.195 14.48C195.049 14.48 194.115 14.1467 193.395 13.48C192.675 12.8133 192.315 11.9867 192.315 11C192.315 10.0133 192.675 9.18667 193.395 8.52C194.115 7.85333 195.049 7.52 196.195 7.52C197.342 7.52 198.275 7.84 198.995 8.48C199.715 9.12 200.075 9.92 200.075 10.88C200.075 11.92 199.715 12.7867 198.995 13.48C198.275 14.1467 197.342 14.48 196.195 14.48ZM218.187 17.16C220.853 17.16 223 17.96 224.627 19.56C226.28 21.16 227.107 23.5333 227.107 26.68V39H220.867V27.64C220.867 25.9333 220.493 24.6667 219.747 23.84C219 22.9867 217.92 22.56 216.507 22.56C214.933 22.56 213.68 23.0533 212.747 24.04C211.813 25 211.347 26.44 211.347 28.36V39H205.107V17.48H211.067V20C211.893 19.0933 212.92 18.4 214.147 17.92C215.373 17.4133 216.72 17.16 218.187 17.16ZM246.603 39.48C243.749 39.48 241.163 38.8667 238.843 37.64C236.549 36.3867 234.736 34.6667 233.403 32.48C232.096 30.2667 231.443 27.7733 231.443 25C231.443 22.2267 232.096 19.7467 233.403 17.56C234.736 15.3467 236.549 13.6267 238.843 12.4C241.163 11.1467 243.763 10.52 246.643 10.52C249.069 10.52 251.256 10.9467 253.203 11.8C255.176 12.6533 256.829 13.88 258.163 15.48L254.003 19.32C252.109 17.1333 249.763 16.04 246.963 16.04C245.229 16.04 243.683 16.4267 242.323 17.2C240.963 17.9467 239.896 19 239.123 20.36C238.376 21.72 238.003 23.2667 238.003 25C238.003 26.7333 238.376 28.28 239.123 29.64C239.896 31 240.963 32.0667 242.323 32.84C243.683 33.5867 245.229 33.96 246.963 33.96C249.763 33.96 252.109 32.8533 254.003 30.64L258.163 34.48C256.829 36.1067 255.176 37.3467 253.203 38.2C251.229 39.0533 249.029 39.48 246.603 39.48ZM271.597 39.32C269.33 39.32 267.29 38.8533 265.477 37.92C263.69 36.96 262.29 35.64 261.277 33.96C260.263 32.28 259.757 30.3733 259.757 28.24C259.757 26.1067 260.263 24.2 261.277 22.52C262.29 20.84 263.69 19.5333 265.477 18.6C267.29 17.64 269.33 17.16 271.597 17.16C273.863 17.16 275.89 17.64 277.677 18.6C279.463 19.5333 280.863 20.84 281.877 22.52C282.89 24.2 283.397 26.1067 283.397 28.24C283.397 30.3733 282.89 32.28 281.877 33.96C280.863 35.64 279.463 36.96 277.677 37.92C275.89 38.8533 273.863 39.32 271.597 39.32ZM271.597 34.2C273.197 34.2 274.503 33.6667 275.517 32.6C276.557 31.5067 277.077 30.0533 277.077 28.24C277.077 26.4267 276.557 24.9867 275.517 23.92C274.503 22.8267 273.197 22.28 271.597 22.28C269.997 22.28 268.677 22.8267 267.637 23.92C266.597 24.9867 266.077 26.4267 266.077 28.24C266.077 30.0533 266.597 31.5067 267.637 32.6C268.677 33.6667 269.997 34.2 271.597 34.2Z" fill="black"/>
<path d="M6.75 60.46H3.06V59.5H11.55V60.46H7.86V70H6.75V60.46ZM17.1183 62.05C18.1083 62.05 18.8933 62.34 19.4733 62.92C20.0633 63.49 20.3583 64.325 20.3583 65.425V70H19.2933V65.53C19.2933 64.71 19.0883 64.085 18.6783 63.655C18.2683 63.225 17.6833 63.01 16.9233 63.01C16.0733 63.01 15.3983 63.265 14.8983 63.775C14.4083 64.275 14.1633 64.97 14.1633 65.86V70H13.0983V58.87H14.1633V63.49C14.4533 63.03 14.8533 62.675 15.3633 62.425C15.8733 62.175 16.4583 62.05 17.1183 62.05ZM30.1489 66.385H23.5489C23.6089 67.205 23.9239 67.87 24.4939 68.38C25.0639 68.88 25.7839 69.13 26.6539 69.13C27.1439 69.13 27.5939 69.045 28.0039 68.875C28.4139 68.695 28.7689 68.435 29.0689 68.095L29.6689 68.785C29.3189 69.205 28.8789 69.525 28.3489 69.745C27.8289 69.965 27.2539 70.075 26.6239 70.075C25.8139 70.075 25.0939 69.905 24.4639 69.565C23.8439 69.215 23.3589 68.735 23.0089 68.125C22.6589 67.515 22.4839 66.825 22.4839 66.055C22.4839 65.285 22.6489 64.595 22.9789 63.985C23.3189 63.375 23.7789 62.9 24.3589 62.56C24.9489 62.22 25.6089 62.05 26.3389 62.05C27.0689 62.05 27.7239 62.22 28.3039 62.56C28.8839 62.9 29.3389 63.375 29.6689 63.985C29.9989 64.585 30.1639 65.275 30.1639 66.055L30.1489 66.385ZM26.3389 62.965C25.5789 62.965 24.9389 63.21 24.4189 63.7C23.9089 64.18 23.6189 64.81 23.5489 65.59H29.1439C29.0739 64.81 28.7789 64.18 28.2589 63.7C27.7489 63.21 27.1089 62.965 26.3389 62.965ZM43.9075 69.04V70H36.4825V59.5H43.6825V60.46H37.5925V64.195H43.0225V65.14H37.5925V69.04H43.9075ZM50.3116 62.05C51.3016 62.05 52.0866 62.34 52.6666 62.92C53.2566 63.49 53.5516 64.325 53.5516 65.425V70H52.4866V65.53C52.4866 64.71 52.2816 64.085 51.8716 63.655C51.4616 63.225 50.8766 63.01 50.1166 63.01C49.2666 63.01 48.5916 63.265 48.0916 63.775C47.6016 64.275 47.3566 64.97 47.3566 65.86V70H46.2916V62.11H47.3116V63.565C47.6016 63.085 48.0016 62.715 48.5116 62.455C49.0316 62.185 49.6316 62.05 50.3116 62.05ZM63.7773 62.11V69.04C63.7773 70.38 63.4473 71.37 62.7873 72.01C62.1373 72.66 61.1523 72.985 59.8323 72.985C59.1023 72.985 58.4073 72.875 57.7473 72.655C57.0973 72.445 56.5673 72.15 56.1573 71.77L56.6973 70.96C57.0773 71.3 57.5373 71.565 58.0773 71.755C58.6273 71.945 59.2023 72.04 59.8023 72.04C60.8023 72.04 61.5373 71.805 62.0073 71.335C62.4773 70.875 62.7123 70.155 62.7123 69.175V68.17C62.3823 68.67 61.9473 69.05 61.4073 69.31C60.8773 69.57 60.2873 69.7 59.6373 69.7C58.8973 69.7 58.2223 69.54 57.6123 69.22C57.0123 68.89 56.5373 68.435 56.1873 67.855C55.8473 67.265 55.6773 66.6 55.6773 65.86C55.6773 65.12 55.8473 64.46 56.1873 63.88C56.5373 63.3 57.0123 62.85 57.6123 62.53C58.2123 62.21 58.8873 62.05 59.6373 62.05C60.3073 62.05 60.9123 62.185 61.4523 62.455C61.9923 62.725 62.4273 63.115 62.7573 63.625V62.11H63.7773ZM59.7423 68.755C60.3123 68.755 60.8273 68.635 61.2873 68.395C61.7473 68.145 62.1023 67.8 62.3523 67.36C62.6123 66.92 62.7423 66.42 62.7423 65.86C62.7423 65.3 62.6123 64.805 62.3523 64.375C62.1023 63.935 61.7473 63.595 61.2873 63.355C60.8373 63.105 60.3223 62.98 59.7423 62.98C59.1723 62.98 58.6573 63.1 58.1973 63.34C57.7473 63.58 57.3923 63.92 57.1323 64.36C56.8823 64.8 56.7573 65.3 56.7573 65.86C56.7573 66.42 56.8823 66.92 57.1323 67.36C57.3923 67.8 57.7473 68.145 58.1973 68.395C58.6573 68.635 59.1723 68.755 59.7423 68.755ZM66.7555 62.11H67.8205V70H66.7555V62.11ZM67.2955 60.385C67.0755 60.385 66.8905 60.31 66.7405 60.16C66.5905 60.01 66.5155 59.83 66.5155 59.62C66.5155 59.42 66.5905 59.245 66.7405 59.095C66.8905 58.945 67.0755 58.87 67.2955 58.87C67.5155 58.87 67.7005 58.945 67.8505 59.095C68.0005 59.235 68.0755 59.405 68.0755 59.605C68.0755 59.825 68.0005 60.01 67.8505 60.16C67.7005 60.31 67.5155 60.385 67.2955 60.385ZM74.8038 62.05C75.7938 62.05 76.5788 62.34 77.1588 62.92C77.7488 63.49 78.0438 64.325 78.0438 65.425V70H76.9788V65.53C76.9788 64.71 76.7738 64.085 76.3638 63.655C75.9538 63.225 75.3688 63.01 74.6088 63.01C73.7588 63.01 73.0838 63.265 72.5838 63.775C72.0938 64.275 71.8488 64.97 71.8488 65.86V70H70.7838V62.11H71.8038V63.565C72.0938 63.085 72.4938 62.715 73.0038 62.455C73.5238 62.185 74.1238 62.05 74.8038 62.05ZM87.8345 66.385H81.2345C81.2945 67.205 81.6095 67.87 82.1795 68.38C82.7495 68.88 83.4695 69.13 84.3395 69.13C84.8295 69.13 85.2795 69.045 85.6895 68.875C86.0995 68.695 86.4545 68.435 86.7545 68.095L87.3545 68.785C87.0045 69.205 86.5645 69.525 86.0345 69.745C85.5145 69.965 84.9395 70.075 84.3095 70.075C83.4995 70.075 82.7795 69.905 82.1495 69.565C81.5295 69.215 81.0445 68.735 80.6945 68.125C80.3445 67.515 80.1695 66.825 80.1695 66.055C80.1695 65.285 80.3345 64.595 80.6645 63.985C81.0045 63.375 81.4645 62.9 82.0445 62.56C82.6345 62.22 83.2945 62.05 84.0245 62.05C84.7545 62.05 85.4095 62.22 85.9895 62.56C86.5695 62.9 87.0245 63.375 87.3545 63.985C87.6845 64.585 87.8495 65.275 87.8495 66.055L87.8345 66.385ZM84.0245 62.965C83.2645 62.965 82.6245 63.21 82.1045 63.7C81.5945 64.18 81.3045 64.81 81.2345 65.59H86.8295C86.7595 64.81 86.4645 64.18 85.9445 63.7C85.4345 63.21 84.7945 62.965 84.0245 62.965ZM96.8872 66.385H90.2872C90.3472 67.205 90.6622 67.87 91.2322 68.38C91.8022 68.88 92.5222 69.13 93.3922 69.13C93.8822 69.13 94.3322 69.045 94.7422 68.875C95.1522 68.695 95.5072 68.435 95.8072 68.095L96.4072 68.785C96.0572 69.205 95.6172 69.525 95.0872 69.745C94.5672 69.965 93.9922 70.075 93.3622 70.075C92.5522 70.075 91.8322 69.905 91.2022 69.565C90.5822 69.215 90.0972 68.735 89.7472 68.125C89.3972 67.515 89.2222 66.825 89.2222 66.055C89.2222 65.285 89.3872 64.595 89.7172 63.985C90.0572 63.375 90.5172 62.9 91.0972 62.56C91.6872 62.22 92.3472 62.05 93.0772 62.05C93.8072 62.05 94.4622 62.22 95.0422 62.56C95.6222 62.9 96.0772 63.375 96.4072 63.985C96.7372 64.585 96.9022 65.275 96.9022 66.055L96.8872 66.385ZM93.0772 62.965C92.3172 62.965 91.6772 63.21 91.1572 63.7C90.6472 64.18 90.3572 64.81 90.2872 65.59H95.8822C95.8122 64.81 95.5172 64.18 94.9972 63.7C94.4872 63.21 93.8472 62.965 93.0772 62.965ZM100.09 63.655C100.34 63.125 100.71 62.725 101.2 62.455C101.7 62.185 102.315 62.05 103.045 62.05V63.085L102.79 63.07C101.96 63.07 101.31 63.325 100.84 63.835C100.37 64.345 100.135 65.06 100.135 65.98V70H99.07V62.11H100.09V63.655ZM104.973 62.11H106.038V70H104.973V62.11ZM105.513 60.385C105.293 60.385 105.108 60.31 104.958 60.16C104.808 60.01 104.733 59.83 104.733 59.62C104.733 59.42 104.808 59.245 104.958 59.095C105.108 58.945 105.293 58.87 105.513 58.87C105.733 58.87 105.918 58.945 106.068 59.095C106.218 59.235 106.293 59.405 106.293 59.605C106.293 59.825 106.218 60.01 106.068 60.16C105.918 60.31 105.733 60.385 105.513 60.385ZM113.022 62.05C114.012 62.05 114.797 62.34 115.377 62.92C115.967 63.49 116.262 64.325 116.262 65.425V70H115.197V65.53C115.197 64.71 114.992 64.085 114.582 63.655C114.172 63.225 113.587 63.01 112.827 63.01C111.977 63.01 111.302 63.265 110.802 63.775C110.312 64.275 110.067 64.97 110.067 65.86V70H109.002V62.11H110.022V63.565C110.312 63.085 110.712 62.715 111.222 62.455C111.742 62.185 112.342 62.05 113.022 62.05ZM126.487 62.11V69.04C126.487 70.38 126.157 71.37 125.497 72.01C124.847 72.66 123.862 72.985 122.542 72.985C121.812 72.985 121.117 72.875 120.457 72.655C119.807 72.445 119.277 72.15 118.867 71.77L119.407 70.96C119.787 71.3 120.247 71.565 120.787 71.755C121.337 71.945 121.912 72.04 122.512 72.04C123.512 72.04 124.247 71.805 124.717 71.335C125.187 70.875 125.422 70.155 125.422 69.175V68.17C125.092 68.67 124.657 69.05 124.117 69.31C123.587 69.57 122.997 69.7 122.347 69.7C121.607 69.7 120.932 69.54 120.322 69.22C119.722 68.89 119.247 68.435 118.897 67.855C118.557 67.265 118.387 66.6 118.387 65.86C118.387 65.12 118.557 64.46 118.897 63.88C119.247 63.3 119.722 62.85 120.322 62.53C120.922 62.21 121.597 62.05 122.347 62.05C123.017 62.05 123.622 62.185 124.162 62.455C124.702 62.725 125.137 63.115 125.467 63.625V62.11H126.487ZM122.452 68.755C123.022 68.755 123.537 68.635 123.997 68.395C124.457 68.145 124.812 67.8 125.062 67.36C125.322 66.92 125.452 66.42 125.452 65.86C125.452 65.3 125.322 64.805 125.062 64.375C124.812 63.935 124.457 63.595 123.997 63.355C123.547 63.105 123.032 62.98 122.452 62.98C121.882 62.98 121.367 63.1 120.907 63.34C120.457 63.58 120.102 63.92 119.842 64.36C119.592 64.8 119.467 65.3 119.467 65.86C119.467 66.42 119.592 66.92 119.842 67.36C120.102 67.8 120.457 68.145 120.907 68.395C121.367 68.635 121.882 68.755 122.452 68.755ZM138.176 70.09C137.136 70.09 136.196 69.86 135.356 69.4C134.526 68.94 133.871 68.305 133.391 67.495C132.921 66.675 132.686 65.76 132.686 64.75C132.686 63.74 132.921 62.83 133.391 62.02C133.871 61.2 134.531 60.56 135.371 60.1C136.211 59.64 137.151 59.41 138.191 59.41C138.971 59.41 139.691 59.54 140.351 59.8C141.011 60.06 141.571 60.44 142.031 60.94L141.326 61.645C140.506 60.815 139.471 60.4 138.221 60.4C137.391 60.4 136.636 60.59 135.956 60.97C135.276 61.35 134.741 61.87 134.351 62.53C133.971 63.19 133.781 63.93 133.781 64.75C133.781 65.57 133.971 66.31 134.351 66.97C134.741 67.63 135.276 68.15 135.956 68.53C136.636 68.91 137.391 69.1 138.221 69.1C139.481 69.1 140.516 68.68 141.326 67.84L142.031 68.545C141.571 69.045 141.006 69.43 140.336 69.7C139.676 69.96 138.956 70.09 138.176 70.09ZM147.046 70.075C146.286 70.075 145.601 69.905 144.991 69.565C144.381 69.215 143.901 68.735 143.551 68.125C143.201 67.515 143.026 66.825 143.026 66.055C143.026 65.285 143.201 64.595 143.551 63.985C143.901 63.375 144.381 62.9 144.991 62.56C145.601 62.22 146.286 62.05 147.046 62.05C147.806 62.05 148.491 62.22 149.101 62.56C149.711 62.9 150.186 63.375 150.526 63.985C150.876 64.595 151.051 65.285 151.051 66.055C151.051 66.825 150.876 67.515 150.526 68.125C150.186 68.735 149.711 69.215 149.101 69.565C148.491 69.905 147.806 70.075 147.046 70.075ZM147.046 69.13C147.606 69.13 148.106 69.005 148.546 68.755C148.996 68.495 149.346 68.13 149.596 67.66C149.846 67.19 149.971 66.655 149.971 66.055C149.971 65.455 149.846 64.92 149.596 64.45C149.346 63.98 148.996 63.62 148.546 63.37C148.106 63.11 147.606 62.98 147.046 62.98C146.486 62.98 145.981 63.11 145.531 63.37C145.091 63.62 144.741 63.98 144.481 64.45C144.231 64.92 144.106 65.455 144.106 66.055C144.106 66.655 144.231 67.19 144.481 67.66C144.741 68.13 145.091 68.495 145.531 68.755C145.981 69.005 146.486 69.13 147.046 69.13ZM163.065 62.05C164.055 62.05 164.83 62.335 165.39 62.905C165.96 63.475 166.245 64.315 166.245 65.425V70H165.18V65.53C165.18 64.71 164.98 64.085 164.58 63.655C164.19 63.225 163.635 63.01 162.915 63.01C162.095 63.01 161.45 63.265 160.98 63.775C160.51 64.275 160.275 64.97 160.275 65.86V70H159.21V65.53C159.21 64.71 159.01 64.085 158.61 63.655C158.22 63.225 157.66 63.01 156.93 63.01C156.12 63.01 155.475 63.265 154.995 63.775C154.525 64.275 154.29 64.97 154.29 65.86V70H153.225V62.11H154.245V63.55C154.525 63.07 154.915 62.7 155.415 62.44C155.915 62.18 156.49 62.05 157.14 62.05C157.8 62.05 158.37 62.19 158.85 62.47C159.34 62.75 159.705 63.165 159.945 63.715C160.235 63.195 160.65 62.79 161.19 62.5C161.74 62.2 162.365 62.05 163.065 62.05ZM173.198 62.05C173.938 62.05 174.608 62.22 175.208 62.56C175.808 62.89 176.278 63.36 176.618 63.97C176.958 64.58 177.128 65.275 177.128 66.055C177.128 66.845 176.958 67.545 176.618 68.155C176.278 68.765 175.808 69.24 175.208 69.58C174.618 69.91 173.948 70.075 173.198 70.075C172.558 70.075 171.978 69.945 171.458 69.685C170.948 69.415 170.528 69.025 170.198 68.515V72.91H169.133V62.11H170.153V63.67C170.473 63.15 170.893 62.75 171.413 62.47C171.943 62.19 172.538 62.05 173.198 62.05ZM173.123 69.13C173.673 69.13 174.173 69.005 174.623 68.755C175.073 68.495 175.423 68.13 175.673 67.66C175.933 67.19 176.063 66.655 176.063 66.055C176.063 65.455 175.933 64.925 175.673 64.465C175.423 63.995 175.073 63.63 174.623 63.37C174.173 63.11 173.673 62.98 173.123 62.98C172.563 62.98 172.058 63.11 171.608 63.37C171.168 63.63 170.818 63.995 170.558 64.465C170.308 64.925 170.183 65.455 170.183 66.055C170.183 66.655 170.308 67.19 170.558 67.66C170.818 68.13 171.168 68.495 171.608 68.755C172.058 69.005 172.563 69.13 173.123 69.13ZM182.016 62.05C183.046 62.05 183.836 62.31 184.386 62.83C184.936 63.34 185.211 64.1 185.211 65.11V70H184.191V68.77C183.951 69.18 183.596 69.5 183.126 69.73C182.666 69.96 182.116 70.075 181.476 70.075C180.596 70.075 179.896 69.865 179.376 69.445C178.856 69.025 178.596 68.47 178.596 67.78C178.596 67.11 178.836 66.57 179.316 66.16C179.806 65.75 180.581 65.545 181.641 65.545H184.146V65.065C184.146 64.385 183.956 63.87 183.576 63.52C183.196 63.16 182.641 62.98 181.911 62.98C181.411 62.98 180.931 63.065 180.471 63.235C180.011 63.395 179.616 63.62 179.286 63.91L178.806 63.115C179.206 62.775 179.686 62.515 180.246 62.335C180.806 62.145 181.396 62.05 182.016 62.05ZM181.641 69.235C182.241 69.235 182.756 69.1 183.186 68.83C183.616 68.55 183.936 68.15 184.146 67.63V66.34H181.671C180.321 66.34 179.646 66.81 179.646 67.75C179.646 68.21 179.821 68.575 180.171 68.845C180.521 69.105 181.011 69.235 181.641 69.235ZM192.123 62.05C193.113 62.05 193.898 62.34 194.478 62.92C195.068 63.49 195.363 64.325 195.363 65.425V70H194.298V65.53C194.298 64.71 194.093 64.085 193.683 63.655C193.273 63.225 192.688 63.01 191.928 63.01C191.078 63.01 190.403 63.265 189.903 63.775C189.413 64.275 189.168 64.97 189.168 65.86V70H188.103V62.11H189.123V63.565C189.413 63.085 189.813 62.715 190.323 62.455C190.843 62.185 191.443 62.05 192.123 62.05ZM204.738 62.11L200.793 70.945C200.473 71.685 200.103 72.21 199.683 72.52C199.263 72.83 198.758 72.985 198.168 72.985C197.788 72.985 197.433 72.925 197.103 72.805C196.773 72.685 196.488 72.505 196.248 72.265L196.743 71.47C197.143 71.87 197.623 72.07 198.183 72.07C198.543 72.07 198.848 71.97 199.098 71.77C199.358 71.57 199.598 71.23 199.818 70.75L200.163 69.985L196.638 62.11H197.748L200.718 68.815L203.688 62.11H204.738Z" fill="black"/>
</svg>
